<mxfile host="app.diagrams.net" modified="2023-08-20T06:09:53.816Z" agent="Mozilla/5.0 (Windows NT 10.0; Win64; x64) AppleWebKit/537.36 (KHTML, like Gecko) Chrome/92.0.4515.131 Safari/537.36 SLBrowser/8.0.1.4031 SLBChan/30" version="21.3.3" etag="O59YhculI6nMnqytm44F" type="github">
  <diagram name="第 1 页" id="eEeRUdgtlv-osGGo4KyX">
    <mxGraphModel>
      <root>
        <mxCell id="0" />
        <mxCell id="1" parent="0" />
      </root>
    </mxGraphModel>
  </diagram>
</mxfile>
